<?xml version="1.0" standalone="no"?>
<!DOCTYPE svg PUBLIC "-//W3C//DTD SVG 20010904//EN"
 "http://www.w3.org/TR/2001/REC-SVG-20010904/DTD/svg10.dtd">
<svg version="1.0" xmlns="http://www.w3.org/2000/svg"
 width="260.000000pt" height="260.000000pt" viewBox="0 0 260.000000 260.000000"
 preserveAspectRatio="xMidYMid meet">
<metadata>
Created by potrace 1.11, written by Peter Selinger 2001-2013
</metadata>
<g transform="translate(0.000000,260.000000) scale(0.100000,-0.100000)"
fill="#000000" stroke="none">
<path d="M1731 2410 c-114 -17 -206 -68 -265 -149 -51 -69 -88 -89 -187 -102
-46 -6 -96 -14 -110 -19 -20 -6 -34 -3 -55 11 -18 12 -47 19 -76 19 -39 0 -54
-6 -83 -31 -69 -61 -68 -151 1 -207 23 -18 34 -35 34 -52 0 -44 42 -113 92
-149 l46 -35 -24 -31 c-30 -40 -31 -88 -3 -116 17 -17 30 -20 64 -17 42 5 43
4 58 -33 9 -22 29 -47 49 -59 31 -20 42 -21 208 -16 118 4 168 3 152 -4 -34
-14 -35 -30 -9 -100 23 -60 24 -66 10 -109 -8 -26 -29 -58 -46 -74 -34 -29
-116 -64 -184 -76 l-43 -8 0 68 c0 57 -3 70 -19 79 -13 6 -143 10 -353 10
l-333 1 -118 149 c-64 83 -123 150 -130 150 -7 0 -20 -6 -29 -12 -16 -14 -238
-526 -238 -550 0 -7 38 -58 85 -113 46 -55 84 -107 85 -116 0 -9 -12 -48 -26
-85 -79 -207 -84 -226 -71 -285 10 -41 18 -57 37 -65 14 -6 234 -23 505 -38
264 -14 499 -29 521 -32 67 -8 74 6 74 146 l0 118 28 5 c15 3 29 3 31 1 4 -3
-12 -63 -26 -100 -2 -7 18 -35 46 -62 42 -41 51 -56 51 -85 0 -45 22 -64 55
-49 21 10 25 19 25 54 0 41 2 45 45 68 52 28 54 34 57 148 l3 84 72 28 c92 35
155 73 210 123 47 43 54 70 24 87 -26 14 -23 15 -77 -30 -56 -46 -156 -100
-229 -124 -236 -76 -609 -87 -750 -22 -60 27 -76 49 -77 107 -1 71 8 74 205
71 264 -5 420 22 570 100 95 49 178 123 218 192 33 58 37 91 13 104 -26 14
-51 3 -64 -29 -18 -42 -30 -36 -30 15 0 76 -1 76 108 69 80 -4 121 -1 236 21
76 15 142 24 147 19 13 -13 66 -210 88 -323 28 -150 42 -301 49 -537 6 -180 9
-207 24 -217 14 -8 22 -7 35 7 16 16 18 40 17 245 -1 307 -37 562 -109 773
l-25 72 21 15 c16 11 20 22 16 46 -3 22 2 40 20 63 101 133 102 421 2 689 -29
78 -168 222 -253 264 -93 46 -246 61 -395 40z m354 -110 c62 -30 177 -145 209
-208 13 -26 36 -96 51 -157 35 -137 40 -296 12 -388 -35 -116 -138 -187 -247
-171 -177 27 -212 137 -117 374 50 128 50 311 -2 318 -42 6 -50 -12 -44 -101
5 -78 3 -88 -36 -202 -46 -130 -62 -240 -43 -294 10 -30 10 -31 -26 -41 -56
-15 -102 -13 -102 5 0 23 -46 62 -81 69 -17 3 -96 1 -176 -5 -132 -10 -146 -9
-164 7 -22 20 -25 57 -5 73 8 7 61 19 119 27 192 27 311 73 342 134 14 26 14
34 1 64 -28 68 -95 75 -194 21 -90 -50 -157 -65 -287 -65 -85 0 -118 4 -144
18 -38 19 -67 54 -76 92 -4 21 0 27 27 40 42 19 78 73 78 116 0 38 4 40 105
49 103 10 160 40 230 119 104 118 158 137 375 133 131 -2 150 -4 195 -27z
m-1467 -1489 c-40 -127 -74 -231 -77 -230 -11 1 -311 367 -311 379 0 7 34 92
76 189 42 97 83 191 91 209 l14 33 139 -175 139 -175 -71 -230z m662 274 c0
-41 -10 -44 -44 -10 l-25 25 -235 0 c-146 0 -237 4 -241 10 -4 7 88 10 269 10
l276 0 0 -35z m271 -111 c-18 -47 -21 -50 -82 -71 -87 -29 -198 -43 -337 -42
-152 1 -166 5 -170 49 -6 56 8 60 210 60 178 0 289 14 363 44 16 7 31 12 32
11 1 0 -6 -23 -16 -51z m-1088 -431 c80 -95 31 -82 454 -114 315 -24 323 -23
323 27 0 15 6 24 15 24 19 0 22 -106 3 -112 -7 -2 -197 8 -423 23 -225 15
-432 28 -460 28 -82 2 -83 4 -39 125 29 78 42 102 49 93 6 -8 41 -50 78 -94z"/>
<path d="M1651 2236 c-19 -6 -48 -28 -65 -49 -26 -33 -31 -48 -31 -92 0 -87
56 -145 147 -153 44 -3 59 0 87 20 48 33 73 70 74 111 1 31 -7 44 -61 97 -69
69 -101 83 -151 66z m59 -81 c10 -12 10 -18 0 -30 -13 -15 -16 -77 -5 -94 9
-15 -16 -13 -36 2 -31 24 -42 56 -29 88 11 26 34 48 51 49 4 0 12 -7 19 -15z"/>
</g>
</svg>
