<svg height='100px' width='100px'  fill="#000000" xmlns="http://www.w3.org/2000/svg" xmlns:xlink="http://www.w3.org/1999/xlink" version="1.1" x="0px" y="0px" viewBox="0 0 100 100" enable-background="new 0 0 100 100" xml:space="preserve"><g><path fill="#000000" d="M89.2,50.1c0.2-0.1,0.4-0.1,0.4-0.1c0.7-0.2,1.2-0.9,1.1-1.6l-0.2-1.7c0.1-0.1,0.2-0.2,0.3-0.3   c4.4-5.2,4.9-14.7,1.2-26.1c0-0.1-0.1-0.3-0.1-0.4c0,0,0,0,0,0c-0.5-1.4-1.1-2.8-2.1-3.9C83,7.9,80.1,7,71.4,7   C60.9,7,58.1,10.8,56,13.5c-0.6,0.8-1,1.4-1.6,1.8c-1.9,1.3-2.5,1.4-5.2,1.7c-0.8,0.1-1.6,0.2-2.7,0.3c-0.8,0.1-1.7,0.3-2.7,0.7   c-1-1-2.3-1.6-3.8-1.6c-2.9,0-5.3,2.4-5.3,5.3c0,2.2,1.4,4.1,3.3,4.9c0.1,4.8,3.2,7.1,5.8,8.1c-0.6,0.5-1.2,1.1-1.8,1.8   c-1,1.3-0.7,3.2,0.6,4.2c0.5,0.4,1.2,0.6,1.8,0.6c0.8,0,1.6-0.3,2.2-0.9c0,0.1,0,0.2,0,0.2c0,1.3,0.5,2.5,1.5,3.4   c1,1,2.5,1.5,4,1.5c1.2,0,3-0.2,4.7-0.3c2-0.2,4-0.3,5-0.3c1.1,0,1.7,0.1,1.9,0.4l-0.5,0c-0.5,0-1,0.2-1.3,0.6s-0.4,0.9-0.2,1.4   l1.7,4.4c0,0,0,0,0,0c0,0,0,0,0,0l-1.3,3.7c-0.1,0.1-0.2,0.2-0.3,0.3c-1.6,1.5-4.4,3.1-9.5,3.8l0.1-4.3c0-0.4-0.1-0.8-0.4-1.1   c-0.3-0.3-0.7-0.5-1.1-0.5H25.4l-8.8-11.1c-0.3-0.4-0.9-0.6-1.4-0.5c-0.5,0.1-1,0.4-1.2,0.9L5.5,62.8c-0.2,0.5-0.1,1.1,0.2,1.6   l6.5,7.8L8,83.5c-0.3,0.9-0.1,2.5,0.6,4.8c0.2,0.6,0.7,1,1.4,1.1l40.3,2.4h0.1c0.4,0,0.7-0.1,1-0.4c0.3-0.3,0.5-0.7,0.5-1.1   l0.2-8.8c0.8-0.1,1.6-0.2,2.4-0.3l-1.2,3.7c-0.2,0.6,0,1.2,0.4,1.6l3,2.6c0.1,1.4,0.2,2.4,0.2,2.5c0.1,0.8,0.7,1.4,1.5,1.4   c0,0,0.1,0,0.2,0c0.8-0.1,1.4-0.7,1.4-1.5c0,0,0-0.1,0-0.2c0,0-0.1-0.9-0.1-2.2l3.1-1.8c0.5-0.3,0.8-0.8,0.8-1.3l-0.1-6.8   c5.2-1.6,9.4-3.9,12.4-6.9c0.6-0.6,0.6-1.5,0-2.1c-0.4-0.4-1-0.5-1.5-0.4c-0.2,0.1-0.4,0.2-0.6,0.4c-2.7,2.7-6.5,4.8-11.4,6.2   c-0.2,0.1-0.4,0.1-0.6,0.2h0L60.3,77l-1.6,0.3l-1.6,0.3l-0.8,0.2l-0.1,0c-1.4,0.2-2.8,0.4-4.2,0.5c-0.5,0.1-1,0.1-1.5,0.1   c-0.5,0-1,0.1-1.5,0.1c-0.5,0-0.9,0-1.4,0c-0.5,0-1,0-1.5,0c-0.5,0-1,0-1.5,0c-3.5-0.1-6.4-0.5-7.9-1c-4.7-1.5-4.8-3.7-4.6-5.8   c0.2-1.5,1.9-2.3,4.6-2.1c0.1,0,0.3,0,0.4,0c2.7,0.3,5.2,0.3,7.6,0.3c0.2,0,0.4,0,0.6,0c0.2,0,0.4,0,0.6,0h0.2v0c0.1,0,0.2,0,0.3,0   c0.4,0,0.8,0,1.2-0.1c0.5,0,1-0.1,1.4-0.1c0.5,0,1-0.1,1.5-0.2c0.5-0.1,1-0.1,1.5-0.2c1.2-0.2,2.3-0.4,3.4-0.7c0,0,0,0,0,0   c1.8-0.4,3.4-1,5-1.7h0c0.5-0.2,0.9-0.4,1.4-0.7c0.1,0,0.1-0.1,0.2-0.1c0.2-0.1,0.3-0.2,0.5-0.3v0c0.7-0.4,1.4-0.8,2.1-1.2h0   c0.2-0.1,0.4-0.3,0.6-0.4c1.5-1,2.6-2.1,3.5-3.1c0.9-1.1,1.6-2.1,2-2.9c0.5-1,0.8-1.7,0.8-1.8c0.2-0.8-0.2-1.6-1-1.9   c-0.8-0.2-1.6,0.2-1.9,1c0,0-0.3,0.8-1,2l-0.4-1.3v0l0.3-3.9l1.1-0.2c0.4,0.1,1,0.3,1.9,0.4c0.8,0.1,1.9,0.2,3,0.2   c1.1,0,2.2-0.1,3.3-0.3c3.8-0.7,7.1-1.3,9.3-1.9c4,10.4,5.9,24.5,5.3,40.5v0.1c0,0.8,0.6,1.5,1.5,1.5c0.8,0,1.5-0.6,1.5-1.5   C95.2,75.3,93.3,60.9,89.2,50.1z M8.6,63.2l7.2-16.7l5.8,7.3l1.2,1.5l1.2,1.5l2.5,3.1l-3.6,11.7l-2,6.3l-5.2-6.2l-1.1-1.3L13.4,69   L8.6,63.2z M46,84.2h0.1c0.4,0,0.7-0.1,1-0.4c0.3-0.3,0.5-0.7,0.5-1.1l0-1.1c0.5,0,0.9,0,1.4,0l-0.1,3.6c0,0.5-0.5,0.9-1,0.9   l-35.6-2.3c-0.6,0-1-0.7-0.8-1.2l2.9-7.7l5.9,7c0,0,0.1,0.1,0.1,0.1c0,0,0,0,0.1,0c0.1,0.1,0.1,0.1,0.2,0.1c0,0,0.1,0,0.1,0.1   c0,0,0.1,0.1,0.2,0.1c0,0,0.1,0,0.2,0c0,0,0.1,0,0.1,0c0,0,0.1,0,0.2,0L46,84.2z M28.8,58l-1-1.3h20.7c0.5,0,0.9,0.4,0.9,0.9l0,2.2   c-0.5,0-1,0-1.5,0v-0.3c0-0.4-0.2-0.8-0.4-1.1c-0.3-0.3-0.7-0.4-1.1-0.4H28.8z M59,64.5c-1.9,0.8-4.1,1.4-6.7,1.9   c-0.5,0.1-1,0.2-1.5,0.2c-0.5,0.1-1,0.1-1.5,0.2c-0.5,0-1,0.1-1.5,0.1c-0.5,0-1,0-1.5,0.1c-0.5,0-1,0-1.5,0c-2.2,0-4.5,0-7.1-0.3   c-0.2-0.1-0.3-0.3-0.5-0.4c-0.4-0.5-0.6-1.2-0.4-2.1c0.2-1.3,1.8-1.9,4.2-1.7c1.3,0.1,2.6,0.2,3.8,0.3c0.5,0,1,0,1.5,0   c0.5,0,1,0,1.5,0c0.5,0,1,0,1.5,0c0.5,0,1-0.1,1.5-0.1c0.5,0,1-0.1,1.5-0.2c3.2-0.4,5.9-1.1,8.2-2.2L59,64.5z M88.4,44.5   c-0.3,0.4-0.7,0.8-1.1,1.1c0,0,0,0-0.1,0.1c-0.4,0.3-0.8,0.6-1.3,0.8c-0.5,0.2-0.9,0.4-1.4,0.5c-1.1,0.3-2.3,0.3-3.6,0.1   c-0.9-0.1-1.7-0.3-2.4-0.6c-0.8-0.3-1.5-0.7-2.1-1.2c-0.4-0.4-0.8-0.8-1.1-1.3c0,0,0,0,0,0c-2-3.5,0.4-9.3,1.6-12.1l0.1-0.3   c1.7-4.1,0.9-9,0.7-10c0-0.1,0-0.2,0-0.2c-0.2-0.8-1-1.3-1.8-1.1c-0.8,0.2-1.3,1-1.2,1.8c0,0.1,1,4.8-0.5,8.4l-0.1,0.3   c-1.3,3-3.8,9.2-1.8,13.9c-1.6,0.4-3.2,0.8-3.7,0.9l-1.5,0c-0.5-3.5-3.9-3.5-5.1-3.5c-1.1,0-3.1,0.2-5.2,0.3   c-1.7,0.1-3.5,0.3-4.6,0.3c-0.7,0-1.4-0.2-1.8-0.7c-0.3-0.2-0.6-0.7-0.6-1.3c0-1.3,0.9-2,2.6-2.2l0.4,0c2.6-0.3,8.6-1,12-2.7   c2.5-1.2,3.6-2.3,3.8-3.6c0.1-0.9-0.2-1.8-1-2.7c-2.2-2.2-5.1-0.8-8,1.1c-1,0.6-3.3,1.6-8.4,1.9c0,0,0,0-0.1,0c-0.2,0-0.4,0-0.6,0   c0,0,0,0,0,0c-0.9,0-2,0.1-3.1,0h-0.3c-0.1,0-5.6-0.2-6-5.4c2.4-0.5,4.3-2.6,4.3-5.2c0-0.4,0-0.7-0.1-1.1c0.8-0.3,1.4-0.4,1.6-0.4   c1-0.1,1.9-0.2,2.6-0.3c2.8-0.3,4.1-0.4,6.6-2.2c0.9-0.7,1.6-1.5,2.3-2.4c1.8-2.4,4-5.3,13-5.3c7.9,0,10,0.6,16,7.8   c0.6,0.8,1.1,1.7,1.5,2.6c0,0.1,0.1,0.2,0.1,0.3c0,0,0,0,0,0.1c0.1,0.2,0.1,0.4,0.2,0.6c0.8,2.5,1.4,5,1.8,7.3c0,0,0,0,0,0   c0.3,1.9,0.5,3.7,0.5,5.4v0c0,3.3-0.5,6-1.6,8.2c-0.3,0.7-0.7,1.3-1.1,1.8C88.6,44.3,88.5,44.4,88.4,44.5z"></path><path fill="#000000" d="M69.7,17c-0.6-0.4-1.2-0.9-1.6-1.6c-0.6-1-1.8-1.7-3.2-1.7c-2,0-3.8,1.4-4.8,3.7c-0.6,1.4-0.6,3,0.1,4.4   c0.7,1.6,2,2.8,3.7,3.3c0.6,0.2,1.3,0.3,1.9,0.3c2.6,0,4.9-1.7,5.7-4.1C72.3,18.9,70.7,17.7,69.7,17z M66,22.4c-0.1,0-0.1,0-0.2,0   c-0.3,0-0.6,0-0.9-0.2c-0.8-0.3-1.5-0.9-1.9-1.7c-0.3-0.6-0.3-1.4,0-2c0.5-1.2,1.2-1.9,2-1.9c0.4,0,0.6,0.2,0.6,0.2   c0.2,0.4,0.5,0.7,0.7,1c-0.4,0.3-0.8,0.8-1,1.4C65,20.5,65.3,21.6,66,22.4z"></path></g></svg>